<svg width="153" height="153" viewBox="0 0 153 153" fill="none" xmlns="http://www.w3.org/2000/svg">
  <path d="M76.4793 0C34.2908 0 0 34.2908 0 76.4794H14.3449C14.3449 42.229 42.2289 14.3449 76.4793 14.3449C110.73 14.3449 138.614 42.229 138.614 76.4794C138.614 110.73 110.73 138.614 76.4793 138.614V152.959C118.628 152.959 152.959 118.668 152.959 76.4794C152.959 34.2908 118.628 0 76.4793 0Z" fill="#EC792B"/>
  <path d="M111.138 76.4776C111.138 95.6176 95.5843 111.171 76.4443 111.171V125.516C103.482 125.516 125.483 103.515 125.483 76.4776C125.483 49.4397 103.482 27.4387 76.4443 27.4387C49.4064 27.4387 27.4458 49.4397 27.4458 76.4776V152.957H41.7909V76.4776C41.7909 57.3376 57.3446 41.7838 76.4846 41.7838C95.6246 41.7838 111.178 57.3376 111.178 76.4776H111.138Z" fill="#EC792B"/>
</svg> 